<mxfile host="app.diagrams.net" modified="2023-05-23T21:19:54.295Z" agent="Mozilla/5.0 (X11; Linux x86_64) AppleWebKit/537.36 (KHTML, like Gecko) Chrome/109.0.0.0 Safari/537.36" etag="UyRjxF6QpP-k1Onx3Obh" version="21.2.8" type="github">
  <diagram name="Page-1" id="y4vLvt-76Si4RtkFSOu0">
    <mxGraphModel dx="774" dy="345" grid="1" gridSize="10" guides="1" tooltips="1" connect="1" arrows="1" fold="1" page="1" pageScale="1" pageWidth="850" pageHeight="1100" math="1" shadow="0">
      <root>
        <mxCell id="0" />
        <mxCell id="1" parent="0" />
        <mxCell id="wwrD06Fq2FmV6nign4Eu-43" value="" style="rounded=0;whiteSpace=wrap;html=1;fillColor=none;dashed=1;" vertex="1" parent="1">
          <mxGeometry x="72" y="223" width="278" height="183" as="geometry" />
        </mxCell>
        <mxCell id="wwrD06Fq2FmV6nign4Eu-1" value="" style="rounded=0;whiteSpace=wrap;html=1;" vertex="1" parent="1">
          <mxGeometry x="80" y="230" width="40" height="170" as="geometry" />
        </mxCell>
        <mxCell id="wwrD06Fq2FmV6nign4Eu-2" value="$$H^0_0$$" style="rounded=1;whiteSpace=wrap;html=1;" vertex="1" parent="1">
          <mxGeometry x="85" y="240" width="30" height="30" as="geometry" />
        </mxCell>
        <mxCell id="wwrD06Fq2FmV6nign4Eu-3" value="$$H^0_1$$" style="rounded=1;whiteSpace=wrap;html=1;" vertex="1" parent="1">
          <mxGeometry x="85" y="280" width="30" height="30" as="geometry" />
        </mxCell>
        <mxCell id="wwrD06Fq2FmV6nign4Eu-4" value="$$H^0_2$$" style="rounded=1;whiteSpace=wrap;html=1;" vertex="1" parent="1">
          <mxGeometry x="85" y="320" width="30" height="30" as="geometry" />
        </mxCell>
        <mxCell id="wwrD06Fq2FmV6nign4Eu-6" value="$$H^0_3$$" style="rounded=1;whiteSpace=wrap;html=1;" vertex="1" parent="1">
          <mxGeometry x="85" y="360" width="30" height="30" as="geometry" />
        </mxCell>
        <mxCell id="wwrD06Fq2FmV6nign4Eu-8" value="" style="rounded=0;whiteSpace=wrap;html=1;" vertex="1" parent="1">
          <mxGeometry x="219" y="230" width="40" height="170" as="geometry" />
        </mxCell>
        <mxCell id="wwrD06Fq2FmV6nign4Eu-9" value="$$H^1_0$$" style="rounded=1;whiteSpace=wrap;html=1;" vertex="1" parent="1">
          <mxGeometry x="224" y="240" width="30" height="30" as="geometry" />
        </mxCell>
        <mxCell id="wwrD06Fq2FmV6nign4Eu-10" value="$$H^1_1$$" style="rounded=1;whiteSpace=wrap;html=1;" vertex="1" parent="1">
          <mxGeometry x="224" y="280" width="30" height="30" as="geometry" />
        </mxCell>
        <mxCell id="wwrD06Fq2FmV6nign4Eu-11" value="$$H^1_2$$" style="rounded=1;whiteSpace=wrap;html=1;" vertex="1" parent="1">
          <mxGeometry x="224" y="320" width="30" height="30" as="geometry" />
        </mxCell>
        <mxCell id="wwrD06Fq2FmV6nign4Eu-12" value="$$H^1_3$$" style="rounded=1;whiteSpace=wrap;html=1;" vertex="1" parent="1">
          <mxGeometry x="224" y="360" width="30" height="30" as="geometry" />
        </mxCell>
        <mxCell id="wwrD06Fq2FmV6nign4Eu-13" value="&lt;font style=&quot;font-size: 14px;&quot; face=&quot;Garamond&quot;&gt;Layer Norm&lt;/font&gt;" style="rounded=0;whiteSpace=wrap;html=1;rotation=-90;" vertex="1" parent="1">
          <mxGeometry x="68" y="306.25" width="170" height="17.5" as="geometry" />
        </mxCell>
        <mxCell id="wwrD06Fq2FmV6nign4Eu-35" value="&lt;font style=&quot;font-size: 14px;&quot; face=&quot;Garamond&quot;&gt;Z = Embedding&lt;/font&gt;" style="rounded=0;whiteSpace=wrap;html=1;rotation=-90;fillColor=#f5f5f5;strokeColor=#000000;fontColor=#000000;" vertex="1" parent="1">
          <mxGeometry x="281" y="302.5" width="170" height="25" as="geometry" />
        </mxCell>
        <mxCell id="wwrD06Fq2FmV6nign4Eu-41" value="&lt;font style=&quot;font-size: 14px;&quot; face=&quot;Garamond&quot;&gt;Input&lt;/font&gt;" style="rounded=0;whiteSpace=wrap;html=1;rotation=-90;fillColor=#f5f5f5;fontColor=#000000;strokeColor=#000000;" vertex="1" parent="1">
          <mxGeometry x="-31" y="302.5" width="170" height="25" as="geometry" />
        </mxCell>
        <mxCell id="wwrD06Fq2FmV6nign4Eu-46" value="&lt;font style=&quot;font-size: 14px;&quot; face=&quot;Garamond&quot;&gt;Astromer Encoder&lt;/font&gt;" style="text;html=1;strokeColor=none;fillColor=none;align=center;verticalAlign=middle;whiteSpace=wrap;rounded=0;" vertex="1" parent="1">
          <mxGeometry x="141" y="200" width="140" height="30" as="geometry" />
        </mxCell>
        <mxCell id="wwrD06Fq2FmV6nign4Eu-62" value="&lt;font face=&quot;Garamond&quot;&gt;&lt;span style=&quot;font-size: 14px;&quot;&gt;Feed-Forward&lt;/span&gt;&lt;/font&gt;" style="rounded=0;whiteSpace=wrap;html=1;rotation=-90;" vertex="1" parent="1">
          <mxGeometry x="89" y="306.25" width="170" height="17.5" as="geometry" />
        </mxCell>
        <mxCell id="wwrD06Fq2FmV6nign4Eu-63" value="&lt;font style=&quot;font-size: 14px;&quot; face=&quot;Garamond&quot;&gt;Layer Norm&lt;/font&gt;" style="rounded=0;whiteSpace=wrap;html=1;rotation=-90;" vertex="1" parent="1">
          <mxGeometry x="109.5" y="306.25" width="170" height="17.5" as="geometry" />
        </mxCell>
        <mxCell id="wwrD06Fq2FmV6nign4Eu-64" value="&lt;font style=&quot;font-size: 14px;&quot; face=&quot;Garamond&quot;&gt;Concatenation&lt;/font&gt;" style="rounded=0;whiteSpace=wrap;html=1;rotation=-90;" vertex="1" parent="1">
          <mxGeometry x="47" y="306.25" width="170" height="17.5" as="geometry" />
        </mxCell>
        <mxCell id="wwrD06Fq2FmV6nign4Eu-65" value="&lt;font style=&quot;font-size: 14px;&quot; face=&quot;Garamond&quot;&gt;Layer Norm&lt;/font&gt;" style="rounded=0;whiteSpace=wrap;html=1;rotation=-90;" vertex="1" parent="1">
          <mxGeometry x="208" y="306.75" width="170" height="17.5" as="geometry" />
        </mxCell>
        <mxCell id="wwrD06Fq2FmV6nign4Eu-66" value="&lt;font face=&quot;Garamond&quot;&gt;&lt;span style=&quot;font-size: 14px;&quot;&gt;Feed-Forward&lt;/span&gt;&lt;/font&gt;" style="rounded=0;whiteSpace=wrap;html=1;rotation=-90;" vertex="1" parent="1">
          <mxGeometry x="229" y="306.75" width="170" height="17.5" as="geometry" />
        </mxCell>
        <mxCell id="wwrD06Fq2FmV6nign4Eu-67" value="&lt;font style=&quot;font-size: 14px;&quot; face=&quot;Garamond&quot;&gt;Layer Norm&lt;/font&gt;" style="rounded=0;whiteSpace=wrap;html=1;rotation=-90;" vertex="1" parent="1">
          <mxGeometry x="249.5" y="306.75" width="170" height="17.5" as="geometry" />
        </mxCell>
        <mxCell id="wwrD06Fq2FmV6nign4Eu-68" value="&lt;font style=&quot;font-size: 14px;&quot; face=&quot;Garamond&quot;&gt;Concatenation&lt;/font&gt;" style="rounded=0;whiteSpace=wrap;html=1;rotation=-90;" vertex="1" parent="1">
          <mxGeometry x="187" y="306.75" width="170" height="17.5" as="geometry" />
        </mxCell>
        <mxCell id="wwrD06Fq2FmV6nign4Eu-75" value="" style="endArrow=classic;html=1;rounded=0;" edge="1" parent="1" target="wwrD06Fq2FmV6nign4Eu-76">
          <mxGeometry width="50" height="50" relative="1" as="geometry">
            <mxPoint x="84" y="416" as="sourcePoint" />
            <mxPoint x="354" y="416" as="targetPoint" />
          </mxGeometry>
        </mxCell>
        <mxCell id="wwrD06Fq2FmV6nign4Eu-76" value="&lt;font style=&quot;font-size: 14px;&quot; face=&quot;Garamond&quot;&gt;Data flow&lt;/font&gt;" style="text;html=1;strokeColor=none;fillColor=none;align=center;verticalAlign=middle;whiteSpace=wrap;rounded=0;fontSize=14;" vertex="1" parent="1">
          <mxGeometry x="181" y="400" width="60" height="30" as="geometry" />
        </mxCell>
        <mxCell id="wwrD06Fq2FmV6nign4Eu-77" value="" style="endArrow=classic;html=1;rounded=0;" edge="1" parent="1">
          <mxGeometry width="50" height="50" relative="1" as="geometry">
            <mxPoint x="241" y="415.5" as="sourcePoint" />
            <mxPoint x="338" y="414.5" as="targetPoint" />
          </mxGeometry>
        </mxCell>
      </root>
    </mxGraphModel>
  </diagram>
</mxfile>
